# xmcd
#
# Track frame offsets:
#	150
#	20624
#	37972
#	53557
#	74334
#	94982
#	114807
#	132406
#	154797
#	170089
#	187801
#
# Disc length: 2798 seconds
#
# Revision: 0
# Processed by: cddbd v1.5.2PL0 Copyright (c) Steve Scherf et al.
# Submitted via: EasyCDDAExtractor 12.0.1.1
#
DISCID=8b0aec0b
DTITLE=Melanie Lowe - I Choose Me
DYEAR=2011
DGENRE=
TTITLE0=Free
TTITLE1=Change In Me
TTITLE2=I Choose Me
TTITLE3=Ready To Believe
TTITLE4=Sometimes
TTITLE5=You'll Never Know
TTITLE6=Think I'll Stay
TTITLE7=Space To Breathe
TTITLE8=Undone
TTITLE9=Lonely Nights
TTITLE10=Song For Kelly
EXTD=
EXTT0=
EXTT1=
EXTT2=
EXTT3=
EXTT4=
EXTT5=
EXTT6=
EXTT7=
EXTT8=
EXTT9=
EXTT10=
PLAYORDER=
